<svg width="100" height="100" viewBox="0 0 100 100" fill="none" xmlns="http://www.w3.org/2000/svg">
<path d="M79.5768 44.326C63.4596 34.7546 36.8746 33.8745 21.4888 38.5441C19.0179 39.294 16.4051 37.8987 15.6566 35.4286C14.9077 32.9562 16.301 30.3452 18.7737 29.5941C36.4356 24.2331 65.7959 25.2684 84.3503 36.2824C86.5726 37.602 87.3016 40.472 85.9845 42.6906C84.6662 44.9128 81.7937 45.6454 79.5768 44.326ZM79.049 58.5028C77.9181 60.3377 75.5191 60.9132 73.6867 59.7865C60.2498 51.5269 39.7606 49.1343 23.8637 53.9597C21.8022 54.5827 19.6248 53.4203 18.9986 51.3628C18.3775 49.3013 19.5404 47.1278 21.5981 46.5009C39.758 40.9903 62.3336 43.6595 77.7665 53.1434C79.5989 54.2721 80.1757 56.6722 79.049 58.5028ZM72.9309 72.1177C72.0323 73.5913 70.1139 74.0529 68.6457 73.1547C56.9043 65.9787 42.1257 64.3582 24.7213 68.3334C23.0441 68.718 21.3726 67.667 20.9901 65.9899C20.6059 64.3135 21.653 62.6417 23.3338 62.2589C42.3799 57.9049 58.7179 59.7788 71.8967 67.832C73.3661 68.7294 73.8289 70.6489 72.9309 72.1177ZM50.0002 -1.4214e-06C22.3862 -1.4214e-06 0 22.3858 0 49.9993C0 77.6161 22.3862 100 50.0002 100C77.6148 100 100 77.6161 100 49.9993C100 22.3858 77.6148 -1.4214e-06 50.0002 -1.4214e-06Z" fill="white"/>
</svg>
