<svg width="100" height="100" viewBox="0 0 100 100" fill="none" xmlns="http://www.w3.org/2000/svg">
<path d="M53.29 97L52.2099 99.2547L53.4514 99.8493L54.6177 99.1183L53.29 97ZM3 72.9095H0.5V74.484L1.91995 75.1642L3 72.9095ZM3 27.5628L1.82362 25.3569L0.5 26.0627V27.5628H3ZM49.06 3L50.0921 0.722971L48.9703 0.214551L47.8836 0.794068L49.06 3ZM97 24.7286H99.5V23.117L98.0321 22.4516L97 24.7286ZM97 69.603L98.3277 71.7213L99.5 70.9865V69.603H97ZM5.5 72.9095V27.5628H0.5V72.9095H5.5ZM4.17638 29.7687L50.2364 5.20593L47.8836 0.794068L1.82362 25.3569L4.17638 29.7687ZM48.0279 5.27703L95.9679 27.0057L98.0321 22.4516L50.0921 0.722971L48.0279 5.27703ZM95.6723 67.4847L51.9623 94.8817L54.6177 99.1183L98.3277 71.7213L95.6723 67.4847ZM54.5325 51.9332L98.2425 26.898L95.7575 22.5593L52.0475 47.5945L54.5325 51.9332ZM55.79 97V73.3819H50.79V97H55.79ZM55.79 73.3819V49.7638H50.79V73.3819H55.79ZM94.5 24.7286V47.402H99.5V24.7286H94.5ZM94.5 47.402V69.603H99.5V47.402H94.5ZM54.5673 75.531L98.2773 49.5511L95.7227 45.253L52.0127 71.2329L54.5673 75.531ZM55.7798 49.5386L51.5498 2.77478L46.5702 3.22522L50.8002 49.989L55.7798 49.5386ZM54.2996 47.4768L29.1546 36.3763L27.1354 40.9504L52.2804 52.0509L54.2996 47.4768ZM29.1546 36.3763L4.00964 25.2758L1.99036 29.8499L27.1354 40.9504L29.1546 36.3763ZM54.3701 94.7453L29.2251 82.7001L27.0649 87.2094L52.2099 99.2547L54.3701 94.7453ZM29.2251 82.7001L4.08005 70.6549L1.91995 75.1642L27.0649 87.2094L29.2251 82.7001ZM25.645 38.6633V84.9548H30.645V38.6633H25.645Z" fill="white"/>
</svg>
